<?xml version="1.0" encoding="utf-8"?>
<!-- Generator: Adobe Illustrator 16.0.0, SVG Export Plug-In . SVG Version: 6.00 Build 0)  -->
<!DOCTYPE svg PUBLIC "-//W3C//DTD SVG 1.1//EN" "http://www.w3.org/Graphics/SVG/1.1/DTD/svg11.dtd">
<svg version="1.1" id="Layer_1" xmlns="http://www.w3.org/2000/svg" xmlns:xlink="http://www.w3.org/1999/xlink" x="0px" y="0px"
	 width="1700.788px" height="1275.591px" viewBox="0 0 1700.788 1275.591" enable-background="new 0 0 1700.788 1275.591"
	 xml:space="preserve">
<g>
	<path fill="#3C3C3B" d="M1407.323,80.865v1113.86H293.462V80.865H1407.323 M1417.323,70.865H283.462v1133.86h1133.86V70.865
		L1417.323,70.865z"/>
</g>
<line fill="none" stroke="#706F6F" stroke-width="3" stroke-linecap="round" stroke-miterlimit="10" stroke-dasharray="10,8" x1="310.462" y1="637.795" x2="1389.462" y2="637.795"/>
<line fill="none" stroke="#706F6F" stroke-width="3" stroke-linecap="round" stroke-miterlimit="10" stroke-dasharray="10,8" x1="850.393" y1="97.865" x2="850.393" y2="1005.865"/>
<circle fill="#FFFFFF" cx="850.392" cy="637.795" r="57"/>
<circle fill="#FFFFFF" stroke="#3C3C3B" stroke-width="3" stroke-miterlimit="10" cx="850.392" cy="637.365" r="43.535"/>
<g>
	<path fill="#3C3C3B" d="M841.632,653.865c-1.012,0-1.787-0.268-2.323-0.805c-0.537-0.537-0.805-1.312-0.805-2.323v-26.174
		c0-1.012,0.268-1.786,0.805-2.323c0.536-0.536,1.311-0.805,2.323-0.805h16.422c0.767,0,1.357,0.2,1.771,0.598
		c0.414,0.399,0.621,0.966,0.621,1.702c0,0.767-0.207,1.357-0.621,1.771s-1.005,0.621-1.771,0.621h-13.892v8.924h12.88
		c0.797,0,1.395,0.2,1.794,0.598c0.398,0.399,0.598,0.981,0.598,1.748s-0.199,1.35-0.598,1.747
		c-0.399,0.399-0.997,0.599-1.794,0.599h-12.88v9.431h13.892c0.767,0,1.357,0.199,1.771,0.598s0.621,0.981,0.621,1.748
		s-0.207,1.35-0.621,1.748s-1.005,0.598-1.771,0.598H841.632z"/>
</g>
<circle fill="#FFFFFF" cx="850.392" cy="921.795" r="57"/>
<circle fill="#FFFFFF" stroke="#3C3C3B" stroke-width="3" stroke-miterlimit="10" cx="850.392" cy="921.365" r="43.535"/>
<g>
	<path fill="#3C3C3B" d="M838.448,938.233c-0.951,0-1.679-0.269-2.185-0.806c-0.506-0.535-0.759-1.279-0.759-2.23v-27.094
		c0-0.981,0.253-1.732,0.759-2.254c0.506-0.521,1.234-0.782,2.185-0.782c0.95,0,1.679,0.261,2.185,0.782s0.759,1.272,0.759,2.254
		v10.855h16.698v-10.855c0-0.981,0.253-1.732,0.759-2.254s1.234-0.782,2.186-0.782c0.95,0,1.679,0.261,2.185,0.782
		s0.759,1.272,0.759,2.254v27.094c0,0.951-0.253,1.695-0.759,2.23c-0.506,0.537-1.234,0.806-2.185,0.806
		c-0.951,0-1.68-0.269-2.186-0.806c-0.506-0.535-0.759-1.279-0.759-2.23v-11.316h-16.698v11.316c0,0.951-0.246,1.695-0.736,2.23
		C840.166,937.965,839.43,938.233,838.448,938.233z"/>
</g>
<circle fill="#FFFFFF" cx="850.392" cy="352.795" r="57"/>
<circle fill="#FFFFFF" stroke="#3C3C3B" stroke-width="3" stroke-miterlimit="10" cx="850.392" cy="352.365" r="43.535"/>
<g>
	<path fill="#3C3C3B" d="M841.632,367.865c-1.012,0-1.787-0.268-2.323-0.805c-0.537-0.536-0.805-1.311-0.805-2.323v-26.174
		c0-1.012,0.268-1.786,0.805-2.323c0.536-0.536,1.311-0.805,2.323-0.805h11.04c2.27,0,4.201,0.338,5.796,1.012
		c1.595,0.675,2.813,1.641,3.657,2.898c0.843,1.258,1.265,2.76,1.265,4.508c0,1.963-0.567,3.619-1.702,4.968
		c-1.135,1.35-2.684,2.254-4.646,2.714v-0.69c2.269,0.338,4.032,1.196,5.29,2.576c1.257,1.38,1.886,3.174,1.886,5.382
		c0,2.883-0.974,5.114-2.921,6.693c-1.948,1.58-4.654,2.369-8.119,2.369H841.632z M844.163,349.189h7.498
		c2.023,0,3.534-0.391,4.53-1.173c0.997-0.782,1.495-1.939,1.495-3.473c0-1.533-0.498-2.691-1.495-3.473
		c-0.996-0.782-2.507-1.173-4.53-1.173h-7.498V349.189z M844.163,363.403h8.28c2.085,0,3.618-0.406,4.6-1.219
		c0.981-0.812,1.472-2.031,1.472-3.657c0-1.656-0.49-2.882-1.472-3.68c-0.981-0.797-2.515-1.196-4.6-1.196h-8.28V363.403z"/>
</g>
<circle fill="#FFFFFF" cx="566.392" cy="638.295" r="57"/>
<circle fill="#FFFFFF" stroke="#3C3C3B" stroke-width="3" stroke-miterlimit="10" cx="566.392" cy="637.866" r="43.535"/>
<g>
	<path fill="#3C3C3B" d="M557.632,654.365c-1.012,0-1.787-0.268-2.323-0.805c-0.537-0.536-0.805-1.311-0.805-2.322v-26.174
		c0-1.012,0.268-1.786,0.805-2.323c0.536-0.536,1.311-0.805,2.323-0.805h8.924c5.429,0,9.621,1.396,12.581,4.186
		c2.959,2.791,4.439,6.793,4.439,12.006c0,2.606-0.376,4.915-1.127,6.923c-0.752,2.009-1.856,3.703-3.313,5.083
		c-1.457,1.38-3.235,2.431-5.336,3.151s-4.516,1.08-7.245,1.08H557.632z M560.393,649.49h5.795c1.901,0,3.55-0.238,4.945-0.713
		c1.396-0.476,2.561-1.181,3.496-2.117c0.936-0.935,1.633-2.115,2.093-3.541s0.69-3.09,0.69-4.991c0-3.802-0.936-6.639-2.807-8.51
		c-1.87-1.87-4.677-2.806-8.418-2.806h-5.795V649.49z"/>
</g>
<circle fill="#FFFFFF" cx="566.392" cy="922.295" r="57"/>
<circle fill="#FFFFFF" stroke="#3C3C3B" stroke-width="3" stroke-miterlimit="10" cx="566.392" cy="921.865" r="43.535"/>
<g>
	<path fill="#3C3C3B" d="M567.098,938.826c-3.588,0-6.616-0.675-9.085-2.024c-2.469-1.349-4.347-3.267-5.635-5.75
		s-1.932-5.429-1.932-8.832c0-2.576,0.375-4.892,1.127-6.946c0.751-2.054,1.84-3.81,3.266-5.267
		c1.426-1.456,3.166-2.576,5.221-3.358c2.055-0.781,4.386-1.173,6.992-1.173c1.717,0,3.442,0.207,5.175,0.621
		s3.365,1.112,4.899,2.093c0.521,0.338,0.866,0.752,1.035,1.242c0.168,0.491,0.191,0.989,0.068,1.495
		c-0.122,0.506-0.353,0.942-0.689,1.312c-0.338,0.367-0.759,0.598-1.265,0.689c-0.507,0.092-1.066-0.03-1.68-0.368
		c-1.166-0.674-2.346-1.165-3.542-1.472c-1.195-0.307-2.53-0.46-4.002-0.46c-2.27,0-4.186,0.452-5.75,1.356
		c-1.563,0.905-2.737,2.217-3.519,3.934c-0.782,1.718-1.173,3.818-1.173,6.302c0,3.772,0.904,6.64,2.714,8.603
		c1.809,1.963,4.492,2.943,8.05,2.943c1.227,0,2.468-0.122,3.726-0.367c1.258-0.246,2.484-0.583,3.681-1.013l-1.15,2.622v-9.798
		h-5.06c-0.768,0-1.357-0.199-1.771-0.599c-0.414-0.398-0.621-0.935-0.621-1.609c0-0.705,0.207-1.242,0.621-1.61
		s1.004-0.552,1.771-0.552h7.59c0.766,0,1.356,0.207,1.771,0.621s0.621,1.004,0.621,1.771v11.178c0,0.674-0.131,1.242-0.391,1.701
		c-0.261,0.461-0.683,0.799-1.266,1.012c-1.35,0.492-2.897,0.897-4.646,1.22C570.502,938.664,568.785,938.826,567.098,938.826z"/>
</g>
<circle fill="#FFFFFF" cx="566.392" cy="353.295" r="57"/>
<circle fill="#FFFFFF" stroke="#3C3C3B" stroke-width="3" stroke-miterlimit="10" cx="566.392" cy="352.866" r="43.535"/>
<g>
	<path fill="#3C3C3B" d="M552.826,366.734c-0.736,0-1.327-0.169-1.771-0.506c-0.445-0.337-0.713-0.789-0.805-1.357
		c-0.092-0.567,0.015-1.203,0.322-1.909l12.144-26.91c0.398-0.889,0.881-1.525,1.449-1.909c0.567-0.383,1.219-0.575,1.955-0.575
		c0.705,0,1.341,0.192,1.909,0.575c0.566,0.384,1.05,1.02,1.448,1.909l12.19,26.91c0.337,0.706,0.46,1.35,0.368,1.932
		c-0.092,0.583-0.354,1.035-0.782,1.357c-0.43,0.322-0.997,0.483-1.702,0.483c-0.858,0-1.525-0.207-2.001-0.621
		s-0.896-1.05-1.265-1.909l-2.99-6.946l2.484,1.61h-19.413l2.484-1.61l-2.944,6.946c-0.399,0.89-0.813,1.534-1.242,1.932
		C554.237,366.534,553.624,366.734,552.826,366.734z M566.029,340.33l-6.44,15.318l-1.196-1.472h15.364l-1.15,1.472l-6.485-15.318
		H566.029z"/>
</g>
<circle fill="#FFFFFF" cx="1131.392" cy="637.865" r="57"/>
<circle fill="#FFFFFF" stroke="#3C3C3B" stroke-width="3" stroke-miterlimit="10" cx="1131.392" cy="637.436" r="43.535"/>
<g>
	<path fill="#3C3C3B" d="M1123.541,654.305c-0.951,0-1.695-0.27-2.23-0.806c-0.537-0.536-0.806-1.312-0.806-2.323v-26.542
		c0-1.012,0.269-1.786,0.806-2.323c0.535-0.536,1.311-0.805,2.322-0.805h16.054c0.798,0,1.396,0.2,1.794,0.598
		c0.398,0.399,0.599,0.966,0.599,1.702c0,0.767-0.2,1.357-0.599,1.771s-0.996,0.621-1.794,0.621h-13.294v9.154h12.328
		c0.767,0,1.357,0.2,1.771,0.598c0.414,0.399,0.621,0.966,0.621,1.702c0,0.767-0.207,1.358-0.621,1.771
		c-0.414,0.414-1.005,0.621-1.771,0.621h-12.328v11.132C1126.392,653.262,1125.441,654.305,1123.541,654.305z"/>
</g>
<circle fill="#FFFFFF" cx="1131.392" cy="921.865" r="57"/>
<circle fill="#FFFFFF" stroke="#3C3C3B" stroke-width="3" stroke-miterlimit="10" cx="1131.392" cy="921.436" r="43.535"/>
<g>
	<path fill="#3C3C3B" d="M1130.449,938.305c-0.951,0-1.68-0.27-2.186-0.806s-0.759-1.28-0.759-2.231v-27.094
		c0-0.98,0.253-1.732,0.759-2.254s1.234-0.781,2.186-0.781c0.949,0,1.679,0.26,2.185,0.781s0.759,1.273,0.759,2.254v27.094
		c0,0.951-0.246,1.695-0.736,2.231S1131.429,938.305,1130.449,938.305z"/>
</g>
<circle fill="#FFFFFF" cx="1131.392" cy="352.866" r="57"/>
<circle fill="#FFFFFF" stroke="#3C3C3B" stroke-width="3" stroke-miterlimit="10" cx="1131.392" cy="352.436" r="43.535"/>
<g>
	<path fill="#3C3C3B" d="M1132.592,368.396c-3.374,0-6.264-0.682-8.671-2.047c-2.408-1.364-4.255-3.296-5.543-5.796
		s-1.932-5.451-1.932-8.855c0-2.545,0.367-4.837,1.104-6.877c0.736-2.039,1.794-3.787,3.174-5.244
		c1.381-1.457,3.074-2.576,5.083-3.358c2.009-0.782,4.271-1.173,6.785-1.173c1.687,0,3.343,0.215,4.968,0.644
		c1.625,0.43,3.052,1.043,4.278,1.84c0.644,0.398,1.073,0.882,1.288,1.449c0.214,0.568,0.26,1.12,0.138,1.656
		c-0.123,0.537-0.376,0.989-0.759,1.357c-0.384,0.368-0.858,0.575-1.426,0.621c-0.568,0.046-1.189-0.145-1.863-0.575
		c-0.951-0.613-1.978-1.058-3.082-1.334c-1.104-0.276-2.224-0.414-3.357-0.414c-2.179,0-4.019,0.445-5.521,1.334
		c-1.503,0.89-2.638,2.178-3.403,3.864c-0.768,1.687-1.15,3.757-1.15,6.21c0,2.423,0.383,4.493,1.15,6.21
		c0.766,1.718,1.9,3.021,3.403,3.91c1.502,0.89,3.342,1.334,5.521,1.334c1.165,0,2.314-0.145,3.449-0.437
		c1.135-0.291,2.208-0.743,3.221-1.357c0.674-0.398,1.279-0.575,1.816-0.529c0.536,0.046,0.989,0.238,1.357,0.575
		c0.368,0.338,0.613,0.759,0.735,1.265c0.123,0.506,0.093,1.028-0.092,1.564c-0.184,0.537-0.552,1.005-1.104,1.403
		c-1.228,0.89-2.691,1.572-4.394,2.047S1134.34,368.396,1132.592,368.396z"/>
</g>
<g id="Arrow_26">
	<g>
		<path fill="#3C3C3B" d="M405.132,1165.865c-1.012,0-1.787-0.269-2.323-0.805c-0.537-0.536-0.805-1.312-0.805-2.323v-26.174
			c0-1.013,0.268-1.786,0.805-2.323c0.536-0.536,1.311-0.805,2.323-0.805h8.924c5.428,0,9.621,1.396,12.581,4.186
			c2.959,2.791,4.439,6.793,4.439,12.006c0,2.607-0.375,4.915-1.127,6.923c-0.751,2.01-1.855,3.703-3.312,5.083
			c-1.457,1.381-3.236,2.432-5.336,3.151c-2.101,0.721-4.516,1.081-7.245,1.081H405.132z M407.893,1160.989h5.796
			c1.901,0,3.549-0.237,4.945-0.713c1.395-0.476,2.56-1.181,3.496-2.116c0.935-0.935,1.633-2.116,2.093-3.542
			c0.46-1.426,0.69-3.089,0.69-4.991c0-3.802-0.936-6.639-2.806-8.51c-1.871-1.87-4.677-2.806-8.418-2.806h-5.796V1160.989z"/>
		<path fill="#3C3C3B" d="M440,1166.233c-0.951,0-1.679-0.269-2.185-0.805c-0.506-0.537-0.759-1.28-0.759-2.231v-27.094
			c0-0.981,0.253-1.732,0.759-2.254c0.506-0.521,1.234-0.782,2.185-0.782c0.95,0,1.679,0.261,2.185,0.782s0.759,1.272,0.759,2.254
			v27.094c0,0.951-0.246,1.694-0.736,2.231C441.717,1165.965,440.981,1166.233,440,1166.233z"/>
		<path fill="#3C3C3B" d="M452.972,1166.233c-0.951,0-1.679-0.269-2.185-0.805c-0.506-0.537-0.759-1.28-0.759-2.231v-26.772
			c0-0.98,0.26-1.725,0.782-2.23c0.521-0.506,1.257-0.759,2.208-0.759h11.086c3.557,0,6.302,0.851,8.234,2.553
			s2.898,4.087,2.898,7.153c0,1.993-0.437,3.711-1.311,5.151c-0.874,1.442-2.139,2.546-3.795,3.313
			c-1.656,0.767-3.665,1.149-6.026,1.149l0.414-0.689h1.518c1.257,0,2.354,0.307,3.289,0.92c0.935,0.613,1.755,1.58,2.461,2.897
			l3.45,6.395c0.368,0.644,0.536,1.272,0.506,1.886c-0.031,0.614-0.261,1.112-0.69,1.495c-0.43,0.383-1.058,0.575-1.886,0.575
			c-0.828,0-1.503-0.177-2.024-0.529s-0.981-0.896-1.38-1.633l-4.646-8.556c-0.552-1.043-1.204-1.74-1.955-2.094
			c-0.751-0.352-1.709-0.528-2.875-0.528h-4.37v10.304c0,0.951-0.246,1.694-0.736,2.231
			C454.689,1165.965,453.953,1166.233,452.972,1166.233z M455.916,1148.523h7.176c2.116,0,3.718-0.438,4.807-1.312
			c1.088-0.874,1.633-2.185,1.633-3.933c0-1.717-0.545-3.013-1.633-3.887c-1.089-0.874-2.691-1.312-4.807-1.312h-7.176V1148.523z"/>
		<path fill="#3C3C3B" d="M484.711,1165.865c-1.012,0-1.787-0.269-2.323-0.805c-0.537-0.536-0.805-1.312-0.805-2.323v-26.174
			c0-1.013,0.268-1.786,0.805-2.323c0.536-0.536,1.311-0.805,2.323-0.805h16.422c0.767,0,1.357,0.199,1.771,0.598
			c0.414,0.399,0.621,0.966,0.621,1.702c0,0.767-0.207,1.356-0.621,1.771c-0.414,0.414-1.004,0.621-1.771,0.621h-13.892v8.924h12.88
			c0.797,0,1.395,0.2,1.794,0.599c0.398,0.398,0.598,0.981,0.598,1.748s-0.2,1.35-0.598,1.748c-0.399,0.398-0.997,0.598-1.794,0.598
			h-12.88v9.43h13.892c0.767,0,1.357,0.2,1.771,0.599c0.414,0.398,0.621,0.981,0.621,1.748s-0.207,1.35-0.621,1.748
			c-0.414,0.398-1.004,0.598-1.771,0.598H484.711z"/>
		<path fill="#3C3C3B" d="M524.087,1166.325c-3.374,0-6.264-0.682-8.671-2.047c-2.408-1.364-4.255-3.296-5.543-5.796
			c-1.288-2.499-1.932-5.451-1.932-8.855c0-2.545,0.368-4.837,1.104-6.877c0.736-2.039,1.794-3.787,3.174-5.244
			c1.38-1.456,3.074-2.575,5.083-3.357c2.008-0.782,4.27-1.173,6.785-1.173c1.687,0,3.342,0.215,4.968,0.644
			c1.625,0.43,3.051,1.043,4.278,1.84c0.644,0.399,1.073,0.882,1.288,1.449c0.214,0.567,0.26,1.12,0.138,1.656
			c-0.123,0.537-0.375,0.989-0.759,1.356c-0.384,0.368-0.859,0.575-1.426,0.621c-0.568,0.046-1.189-0.145-1.863-0.575
			c-0.951-0.612-1.978-1.058-3.082-1.334c-1.104-0.275-2.224-0.414-3.358-0.414c-2.178,0-4.018,0.445-5.52,1.335
			c-1.503,0.89-2.638,2.178-3.404,3.863c-0.767,1.688-1.15,3.757-1.15,6.21c0,2.423,0.383,4.493,1.15,6.21
			c0.766,1.718,1.901,3.021,3.404,3.91c1.502,0.89,3.342,1.334,5.52,1.334c1.165,0,2.315-0.145,3.45-0.437
			c1.134-0.291,2.208-0.743,3.22-1.357c0.674-0.398,1.28-0.575,1.817-0.529c0.537,0.047,0.989,0.238,1.357,0.575
			c0.368,0.338,0.613,0.759,0.736,1.266c0.122,0.506,0.092,1.027-0.092,1.563c-0.184,0.537-0.552,1.005-1.104,1.403
			c-1.227,0.89-2.691,1.571-4.393,2.047C527.56,1166.087,525.835,1166.325,524.087,1166.325z"/>
		<path fill="#3C3C3B" d="M550.583,1166.233c-0.951,0-1.679-0.269-2.185-0.805c-0.506-0.537-0.759-1.28-0.759-2.231v-24.84h-8.97
			c-0.798,0-1.419-0.223-1.863-0.667c-0.445-0.444-0.667-1.05-0.667-1.817c0-0.797,0.222-1.402,0.667-1.816
			c0.444-0.414,1.065-0.621,1.863-0.621h23.828c0.797,0,1.418,0.207,1.863,0.621c0.444,0.414,0.667,1.02,0.667,1.816
			c0,0.768-0.223,1.373-0.667,1.817c-0.445,0.444-1.066,0.667-1.863,0.667h-8.97v24.84c0,0.951-0.246,1.694-0.736,2.231
			C552.3,1165.965,551.564,1166.233,550.583,1166.233z"/>
		<path fill="#3C3C3B" d="M571.328,1166.233c-0.951,0-1.679-0.269-2.185-0.805c-0.506-0.537-0.759-1.28-0.759-2.231v-27.094
			c0-0.981,0.253-1.732,0.759-2.254c0.506-0.521,1.234-0.782,2.185-0.782c0.95,0,1.679,0.261,2.185,0.782s0.759,1.272,0.759,2.254
			v27.094c0,0.951-0.246,1.694-0.736,2.231C573.045,1165.965,572.31,1166.233,571.328,1166.233z"/>
		<path fill="#3C3C3B" d="M595.893,1166.325c-3.128,0-5.865-0.69-8.211-2.07c-2.346-1.38-4.163-3.318-5.451-5.818
			c-1.288-2.499-1.932-5.436-1.932-8.81c0-2.545,0.368-4.837,1.104-6.877c0.736-2.039,1.786-3.787,3.151-5.244
			c1.364-1.456,3.005-2.575,4.922-3.357c1.916-0.782,4.055-1.173,6.417-1.173c3.158,0,5.903,0.683,8.234,2.047
			c2.33,1.364,4.14,3.289,5.428,5.772c1.288,2.484,1.932,5.413,1.932,8.786c0,2.546-0.368,4.846-1.104,6.9
			c-0.736,2.055-1.787,3.817-3.151,5.29c-1.365,1.472-3.006,2.599-4.922,3.381C600.393,1165.935,598.253,1166.325,595.893,1166.325z
			 M595.893,1161.266c1.993,0,3.687-0.46,5.083-1.381c1.395-0.92,2.468-2.254,3.22-4.002s1.127-3.833,1.127-6.256
			c0-3.68-0.821-6.531-2.461-8.556c-1.641-2.024-3.964-3.036-6.969-3.036c-1.963,0-3.65,0.453-5.06,1.357
			c-1.411,0.904-2.492,2.224-3.243,3.956c-0.752,1.732-1.127,3.825-1.127,6.278c0,3.65,0.828,6.502,2.484,8.557
			C590.603,1160.238,592.917,1161.266,595.893,1161.266z"/>
		<path fill="#3C3C3B" d="M620.226,1166.233c-0.89,0-1.572-0.246-2.047-0.736c-0.476-0.49-0.713-1.196-0.713-2.116v-27.369
			c0-0.95,0.237-1.68,0.713-2.186c0.475-0.506,1.096-0.759,1.863-0.759c0.705,0,1.234,0.131,1.586,0.391
			c0.354,0.261,0.775,0.698,1.266,1.312l17.617,22.861h-1.195v-21.758c0-0.889,0.236-1.579,0.713-2.069
			c0.475-0.49,1.156-0.736,2.047-0.736c0.889,0,1.564,0.246,2.023,0.736c0.461,0.49,0.691,1.181,0.691,2.069v27.601
			c0,0.858-0.215,1.533-0.645,2.023s-1.012,0.736-1.748,0.736c-0.705,0-1.266-0.138-1.68-0.414s-0.867-0.721-1.355-1.334
			l-17.572-22.862h1.148v21.758c0,0.92-0.229,1.626-0.689,2.116C621.791,1165.987,621.115,1166.233,620.226,1166.233z"/>
		<path fill="#3C3C3B" d="M667.375,1166.233c-0.951,0-1.695-0.269-2.231-0.805c-0.536-0.537-0.805-1.312-0.805-2.323v-26.542
			c0-1.013,0.269-1.786,0.805-2.323c0.536-0.536,1.312-0.805,2.323-0.805h16.054c0.798,0,1.396,0.199,1.794,0.598
			c0.398,0.399,0.599,0.966,0.599,1.702c0,0.767-0.2,1.356-0.599,1.771s-0.996,0.621-1.794,0.621h-13.294v9.154h12.328
			c0.767,0,1.357,0.2,1.771,0.598c0.414,0.399,0.621,0.967,0.621,1.702c0,0.767-0.207,1.357-0.621,1.771s-1.005,0.621-1.771,0.621
			h-12.328v11.132C670.227,1165.191,669.277,1166.233,667.375,1166.233z"/>
		<path fill="#3C3C3B" d="M693.135,1166.233c-0.951,0-1.68-0.269-2.186-0.805c-0.506-0.537-0.759-1.28-0.759-2.231v-26.772
			c0-0.98,0.26-1.725,0.782-2.23c0.521-0.506,1.257-0.759,2.208-0.759h11.086c3.557,0,6.302,0.851,8.233,2.553
			c1.933,1.702,2.898,4.087,2.898,7.153c0,1.993-0.437,3.711-1.311,5.151c-0.874,1.442-2.14,2.546-3.796,3.313
			c-1.655,0.767-3.664,1.149-6.025,1.149l0.414-0.689h1.518c1.257,0,2.354,0.307,3.289,0.92s1.755,1.58,2.461,2.897l3.45,6.395
			c0.368,0.644,0.536,1.272,0.506,1.886c-0.031,0.614-0.261,1.112-0.689,1.495c-0.431,0.383-1.059,0.575-1.887,0.575
			s-1.503-0.177-2.023-0.529c-0.522-0.353-0.982-0.896-1.38-1.633l-4.646-8.556c-0.552-1.043-1.204-1.74-1.955-2.094
			c-0.752-0.352-1.71-0.528-2.875-0.528h-4.37v10.304c0,0.951-0.245,1.694-0.735,2.231
			C694.852,1165.965,694.116,1166.233,693.135,1166.233z M696.079,1148.523h7.177c2.115,0,3.718-0.438,4.807-1.312
			c1.088-0.874,1.633-2.185,1.633-3.933c0-1.717-0.545-3.013-1.633-3.887c-1.089-0.874-2.691-1.312-4.807-1.312h-7.177V1148.523z"/>
		<path fill="#3C3C3B" d="M736.053,1166.325c-3.128,0-5.865-0.69-8.211-2.07s-4.163-3.318-5.451-5.818
			c-1.288-2.499-1.932-5.436-1.932-8.81c0-2.545,0.367-4.837,1.104-6.877c0.736-2.039,1.786-3.787,3.151-5.244
			c1.364-1.456,3.005-2.575,4.922-3.357c1.916-0.782,4.055-1.173,6.417-1.173c3.158,0,5.903,0.683,8.233,2.047
			c2.331,1.364,4.141,3.289,5.429,5.772c1.288,2.484,1.932,5.413,1.932,8.786c0,2.546-0.368,4.846-1.104,6.9
			c-0.736,2.055-1.787,3.817-3.151,5.29c-1.365,1.472-3.006,2.599-4.922,3.381C740.553,1165.935,738.415,1166.325,736.053,1166.325z
			 M736.053,1161.266c1.993,0,3.688-0.46,5.083-1.381c1.395-0.92,2.468-2.254,3.22-4.002c0.751-1.748,1.127-3.833,1.127-6.256
			c0-3.68-0.82-6.531-2.461-8.556s-3.964-3.036-6.969-3.036c-1.963,0-3.65,0.453-5.061,1.357s-2.491,2.224-3.242,3.956
			c-0.752,1.732-1.127,3.825-1.127,6.278c0,3.65,0.827,6.502,2.483,8.557S733.079,1161.266,736.053,1161.266z"/>
		<path fill="#3C3C3B" d="M760.386,1166.233c-0.858,0-1.518-0.246-1.978-0.736s-0.69-1.165-0.69-2.023v-27.646
			c0-0.889,0.245-1.571,0.736-2.047c0.49-0.476,1.165-0.713,2.023-0.713c0.767,0,1.372,0.146,1.817,0.437
			c0.444,0.292,0.851,0.79,1.219,1.495l11.362,21.022h-1.472l11.361-21.022c0.368-0.705,0.767-1.203,1.196-1.495
			c0.429-0.291,1.027-0.437,1.794-0.437c0.858,0,1.519,0.237,1.979,0.713s0.689,1.158,0.689,2.047v27.646
			c0,0.858-0.223,1.533-0.667,2.023s-1.111,0.736-2.001,0.736c-0.858,0-1.518-0.246-1.978-0.736s-0.69-1.165-0.69-2.023v-21.299
			h1.012l-9.659,17.618c-0.308,0.522-0.629,0.905-0.967,1.15c-0.338,0.246-0.798,0.368-1.38,0.368c-0.583,0-1.058-0.131-1.426-0.392
			c-0.368-0.26-0.69-0.636-0.966-1.127l-9.752-17.664h1.104v21.345c0,0.858-0.223,1.533-0.667,2.023
			S761.276,1166.233,760.386,1166.233z"/>
		<path fill="#3C3C3B" d="M812.964,1166.233c-0.951,0-1.68-0.269-2.186-0.805c-0.506-0.537-0.759-1.28-0.759-2.231v-26.772
			c0-0.98,0.26-1.725,0.782-2.23c0.521-0.506,1.257-0.759,2.208-0.759h11.086c3.557,0,6.302,0.89,8.233,2.668
			c1.933,1.778,2.898,4.263,2.898,7.452s-0.966,5.681-2.898,7.475c-1.932,1.794-4.677,2.691-8.233,2.691h-8.188v9.476
			c0,0.951-0.245,1.694-0.735,2.231C814.681,1165.965,813.945,1166.233,812.964,1166.233z M815.908,1149.075h7.269
			c2.085,0,3.664-0.467,4.737-1.403c1.073-0.935,1.61-2.307,1.61-4.116s-0.537-3.175-1.61-4.095s-2.652-1.38-4.737-1.38h-7.269
			V1149.075z"/>
		<path fill="#3C3C3B" d="M843.001,1165.865c-0.951,0-1.688-0.269-2.208-0.805c-0.522-0.536-0.782-1.28-0.782-2.231v-26.542
			c0-0.981,0.253-1.725,0.759-2.23c0.506-0.507,1.234-0.76,2.186-0.76c0.95,0,1.679,0.253,2.185,0.76
			c0.506,0.506,0.759,1.249,0.759,2.23v24.564h13.34c0.828,0,1.465,0.215,1.909,0.644c0.444,0.43,0.667,1.043,0.667,1.84
			c0,0.798-0.223,1.419-0.667,1.863c-0.444,0.445-1.081,0.667-1.909,0.667H843.001z"/>
		<path fill="#3C3C3B" d="M865.496,1166.233c-0.736,0-1.327-0.169-1.771-0.506s-0.713-0.789-0.805-1.357
			c-0.092-0.567,0.015-1.203,0.322-1.909l12.144-26.91c0.398-0.889,0.881-1.524,1.449-1.908c0.567-0.384,1.219-0.575,1.955-0.575
			c0.705,0,1.341,0.191,1.909,0.575c0.566,0.384,1.05,1.02,1.448,1.908l12.19,26.91c0.337,0.706,0.46,1.351,0.368,1.933
			c-0.092,0.583-0.354,1.035-0.782,1.356c-0.43,0.322-0.997,0.483-1.702,0.483c-0.858,0-1.525-0.207-2.001-0.621
			s-0.896-1.05-1.265-1.909l-2.99-6.946l2.484,1.61h-19.412l2.483-1.61l-2.943,6.946c-0.399,0.89-0.813,1.534-1.242,1.932
			C866.906,1166.033,866.292,1166.233,865.496,1166.233z M878.698,1139.829l-6.44,15.318l-1.196-1.473h15.364l-1.15,1.473
			l-6.485-15.318H878.698z"/>
		<path fill="#3C3C3B" d="M907.08,1166.233c-0.951,0-1.679-0.269-2.185-0.805c-0.506-0.537-0.76-1.296-0.76-2.277v-13.984
			l1.242,3.542l-11.086-15.594c-0.398-0.552-0.575-1.143-0.528-1.771c0.046-0.628,0.299-1.165,0.759-1.609s1.104-0.667,1.932-0.667
			c0.613,0,1.173,0.153,1.679,0.46c0.507,0.307,0.989,0.782,1.449,1.426l8.234,11.685h-1.288l8.28-11.685
			c0.49-0.674,0.966-1.157,1.426-1.449c0.46-0.291,1.027-0.437,1.702-0.437c0.797,0,1.418,0.207,1.862,0.621s0.675,0.928,0.69,1.541
			c0.015,0.613-0.207,1.258-0.667,1.932l-10.994,15.548l1.196-3.542v13.984C910.024,1165.206,909.042,1166.233,907.08,1166.233z"/>
		<path fill="#3C3C3B" d="M929.573,1165.865c-1.012,0-1.787-0.269-2.323-0.805s-0.805-1.312-0.805-2.323v-26.174
			c0-1.013,0.269-1.786,0.805-2.323c0.536-0.536,1.312-0.805,2.323-0.805h16.422c0.767,0,1.357,0.199,1.771,0.598
			c0.414,0.399,0.621,0.966,0.621,1.702c0,0.767-0.207,1.356-0.621,1.771s-1.005,0.621-1.771,0.621h-13.892v8.924h12.88
			c0.797,0,1.395,0.2,1.794,0.599c0.398,0.398,0.598,0.981,0.598,1.748s-0.199,1.35-0.598,1.748
			c-0.399,0.398-0.997,0.598-1.794,0.598h-12.88v9.43h13.892c0.767,0,1.357,0.2,1.771,0.599s0.621,0.981,0.621,1.748
			s-0.207,1.35-0.621,1.748s-1.005,0.598-1.771,0.598H929.573z"/>
		<path fill="#3C3C3B" d="M956.85,1166.233c-0.951,0-1.68-0.269-2.186-0.805c-0.506-0.537-0.759-1.28-0.759-2.231v-26.772
			c0-0.98,0.26-1.725,0.782-2.23c0.521-0.506,1.257-0.759,2.208-0.759h11.086c3.557,0,6.302,0.851,8.233,2.553
			c1.933,1.702,2.898,4.087,2.898,7.153c0,1.993-0.437,3.711-1.311,5.151c-0.874,1.442-2.14,2.546-3.796,3.313
			c-1.655,0.767-3.664,1.149-6.025,1.149l0.414-0.689h1.518c1.257,0,2.354,0.307,3.289,0.92s1.755,1.58,2.461,2.897l3.45,6.395
			c0.368,0.644,0.536,1.272,0.506,1.886c-0.031,0.614-0.261,1.112-0.689,1.495c-0.431,0.383-1.059,0.575-1.887,0.575
			s-1.503-0.177-2.023-0.529c-0.522-0.353-0.982-0.896-1.38-1.633l-4.646-8.556c-0.552-1.043-1.204-1.74-1.955-2.094
			c-0.752-0.352-1.71-0.528-2.875-0.528h-4.37v10.304c0,0.951-0.245,1.694-0.735,2.231
			C958.567,1165.965,957.831,1166.233,956.85,1166.233z M959.793,1148.523h7.177c2.115,0,3.718-0.438,4.807-1.312
			c1.088-0.874,1.633-2.185,1.633-3.933c0-1.717-0.545-3.013-1.633-3.887c-1.089-0.874-2.691-1.312-4.807-1.312h-7.177V1148.523z"/>
		<path fill="#3C3C3B" d="M996.547,1166.325c-1.35,0-2.698-0.1-4.048-0.299s-2.622-0.506-3.818-0.92
			c-1.195-0.414-2.27-0.928-3.22-1.541c-0.552-0.368-0.936-0.813-1.149-1.334c-0.215-0.521-0.284-1.035-0.207-1.541
			c0.076-0.506,0.275-0.95,0.598-1.334s0.729-0.621,1.219-0.713c0.49-0.093,1.027,0.046,1.61,0.414
			c1.349,0.798,2.775,1.38,4.278,1.748c1.502,0.367,3.082,0.552,4.737,0.552c2.423,0,4.187-0.406,5.29-1.219
			c1.104-0.813,1.656-1.863,1.656-3.151c0-1.073-0.391-1.916-1.173-2.53c-0.782-0.613-2.124-1.119-4.025-1.518l-5.06-1.059
			c-2.914-0.612-5.083-1.647-6.509-3.104c-1.427-1.456-2.14-3.381-2.14-5.773c0-1.502,0.307-2.867,0.92-4.094s1.479-2.284,2.6-3.174
			c1.119-0.89,2.453-1.571,4.002-2.047c1.548-0.476,3.258-0.713,5.129-0.713c1.84,0,3.588,0.229,5.244,0.689
			c1.655,0.46,3.143,1.135,4.462,2.024c0.49,0.338,0.82,0.752,0.989,1.242c0.168,0.49,0.206,0.974,0.114,1.448
			c-0.092,0.477-0.307,0.882-0.644,1.22c-0.338,0.338-0.759,0.536-1.266,0.598c-0.506,0.062-1.08-0.092-1.725-0.46
			c-1.135-0.645-2.285-1.104-3.45-1.38c-1.166-0.276-2.423-0.414-3.771-0.414c-1.411,0-2.622,0.199-3.634,0.598
			c-1.013,0.399-1.787,0.959-2.323,1.68c-0.537,0.721-0.806,1.571-0.806,2.553c0,1.104,0.368,1.985,1.104,2.645
			c0.736,0.66,1.993,1.173,3.771,1.541l5.015,1.059c3.036,0.644,5.297,1.655,6.785,3.036c1.486,1.38,2.23,3.22,2.23,5.52
			c0,1.472-0.299,2.806-0.896,4.002c-0.599,1.196-1.457,2.224-2.576,3.082c-1.12,0.859-2.461,1.518-4.025,1.978
			C1000.274,1166.096,998.51,1166.325,996.547,1166.325z"/>
		<path fill="#3C3C3B" d="M1037.625,1166.233c-0.95,0-1.679-0.269-2.185-0.805c-0.506-0.537-0.759-1.28-0.759-2.231v-24.84h-8.971
			c-0.798,0-1.418-0.223-1.862-0.667c-0.445-0.444-0.667-1.05-0.667-1.817c0-0.797,0.222-1.402,0.667-1.816
			c0.444-0.414,1.064-0.621,1.862-0.621h23.828c0.798,0,1.418,0.207,1.863,0.621c0.444,0.414,0.667,1.02,0.667,1.816
			c0,0.768-0.223,1.373-0.667,1.817c-0.445,0.444-1.065,0.667-1.863,0.667h-8.97v24.84c0,0.951-0.246,1.694-0.736,2.231
			C1039.343,1165.965,1038.607,1166.233,1037.625,1166.233z"/>
		<path fill="#3C3C3B" d="M1052.162,1166.233c-0.736,0-1.327-0.169-1.771-0.506s-0.713-0.789-0.805-1.357
			c-0.092-0.567,0.015-1.203,0.322-1.909l12.144-26.91c0.398-0.889,0.881-1.524,1.449-1.908c0.567-0.384,1.219-0.575,1.955-0.575
			c0.705,0,1.341,0.191,1.909,0.575c0.566,0.384,1.05,1.02,1.448,1.908l12.19,26.91c0.337,0.706,0.46,1.351,0.368,1.933
			c-0.092,0.583-0.354,1.035-0.782,1.356c-0.43,0.322-0.997,0.483-1.702,0.483c-0.858,0-1.525-0.207-2.001-0.621
			s-0.896-1.05-1.265-1.909l-2.99-6.946l2.484,1.61h-19.412l2.483-1.61l-2.943,6.946c-0.399,0.89-0.813,1.534-1.242,1.932
			C1053.572,1166.033,1052.958,1166.233,1052.162,1166.233z M1065.364,1139.829l-6.44,15.318l-1.196-1.473h15.364l-1.15,1.473
			l-6.485-15.318H1065.364z"/>
		<path fill="#3C3C3B" d="M1089.191,1165.865c-1.012,0-1.787-0.269-2.323-0.805s-0.805-1.312-0.805-2.323v-26.174
			c0-1.013,0.269-1.786,0.805-2.323c0.536-0.536,1.312-0.805,2.323-0.805h11.04c2.27,0,4.201,0.338,5.796,1.012
			c1.595,0.675,2.813,1.641,3.657,2.898c0.843,1.258,1.265,2.76,1.265,4.508c0,1.963-0.567,3.618-1.702,4.968
			s-2.684,2.254-4.646,2.714v-0.689c2.269,0.337,4.032,1.195,5.29,2.575c1.257,1.38,1.886,3.175,1.886,5.383
			c0,2.883-0.974,5.113-2.921,6.692c-1.948,1.58-4.654,2.369-8.119,2.369H1089.191z M1091.721,1147.189h7.498
			c2.023,0,3.534-0.392,4.53-1.173c0.997-0.782,1.495-1.939,1.495-3.474c0-1.533-0.498-2.69-1.495-3.473
			c-0.996-0.782-2.507-1.173-4.53-1.173h-7.498V1147.189z M1091.721,1161.403h8.28c2.085,0,3.618-0.406,4.6-1.219
			s1.472-2.031,1.472-3.657c0-1.656-0.49-2.882-1.472-3.68s-2.515-1.196-4.6-1.196h-8.28V1161.403z"/>
		<path fill="#3C3C3B" d="M1120.701,1165.865c-0.951,0-1.688-0.269-2.208-0.805c-0.522-0.536-0.782-1.28-0.782-2.231v-26.542
			c0-0.981,0.253-1.725,0.759-2.23c0.506-0.507,1.234-0.76,2.186-0.76c0.95,0,1.679,0.253,2.185,0.76
			c0.506,0.506,0.759,1.249,0.759,2.23v24.564h13.34c0.828,0,1.465,0.215,1.909,0.644c0.444,0.43,0.667,1.043,0.667,1.84
			c0,0.798-0.223,1.419-0.667,1.863c-0.444,0.445-1.081,0.667-1.909,0.667H1120.701z"/>
		<path fill="#3C3C3B" d="M1146.69,1165.865c-1.012,0-1.787-0.269-2.323-0.805s-0.805-1.312-0.805-2.323v-26.174
			c0-1.013,0.269-1.786,0.805-2.323c0.536-0.536,1.312-0.805,2.323-0.805h16.422c0.767,0,1.357,0.199,1.771,0.598
			c0.414,0.399,0.621,0.966,0.621,1.702c0,0.767-0.207,1.356-0.621,1.771s-1.005,0.621-1.771,0.621h-13.892v8.924h12.88
			c0.797,0,1.395,0.2,1.794,0.599c0.398,0.398,0.598,0.981,0.598,1.748s-0.199,1.35-0.598,1.748
			c-0.399,0.398-0.997,0.598-1.794,0.598h-12.88v9.43h13.892c0.767,0,1.357,0.2,1.771,0.599s0.621,0.981,0.621,1.748
			s-0.207,1.35-0.621,1.748s-1.005,0.598-1.771,0.598H1146.69z"/>
		<path fill="#3C3C3B" d="M1186.618,1165.865c-1.012,0-1.787-0.269-2.323-0.805s-0.805-1.312-0.805-2.323v-26.174
			c0-1.013,0.269-1.786,0.805-2.323c0.536-0.536,1.312-0.805,2.323-0.805h16.422c0.767,0,1.357,0.199,1.771,0.598
			c0.414,0.399,0.621,0.966,0.621,1.702c0,0.767-0.207,1.356-0.621,1.771s-1.005,0.621-1.771,0.621h-13.892v8.924h12.88
			c0.797,0,1.395,0.2,1.794,0.599c0.398,0.398,0.598,0.981,0.598,1.748s-0.199,1.35-0.598,1.748
			c-0.399,0.398-0.997,0.598-1.794,0.598h-12.88v9.43h13.892c0.767,0,1.357,0.2,1.771,0.599s0.621,0.981,0.621,1.748
			s-0.207,1.35-0.621,1.748s-1.005,0.598-1.771,0.598H1186.618z"/>
		<path fill="#3C3C3B" d="M1214.079,1165.865c-1.012,0-1.787-0.269-2.323-0.805s-0.805-1.312-0.805-2.323v-26.174
			c0-1.013,0.269-1.786,0.805-2.323c0.536-0.536,1.312-0.805,2.323-0.805h8.924c5.429,0,9.621,1.396,12.581,4.186
			c2.959,2.791,4.439,6.793,4.439,12.006c0,2.607-0.376,4.915-1.127,6.923c-0.752,2.01-1.856,3.703-3.313,5.083
			c-1.457,1.381-3.235,2.432-5.336,3.151c-2.101,0.721-4.516,1.081-7.245,1.081H1214.079z M1216.838,1160.989h5.796
			c1.901,0,3.55-0.237,4.945-0.713s2.561-1.181,3.496-2.116c0.936-0.935,1.633-2.116,2.093-3.542s0.69-3.089,0.69-4.991
			c0-3.802-0.936-6.639-2.807-8.51c-1.87-1.87-4.677-2.806-8.418-2.806h-5.796V1160.989z"/>
		<path fill="#3C3C3B" d="M1261.596,1166.325c-3.588,0-6.616-0.674-9.085-2.024c-2.469-1.349-4.347-3.266-5.635-5.75
			c-1.288-2.483-1.932-5.428-1.932-8.832c0-2.575,0.375-4.891,1.127-6.945c0.751-2.055,1.84-3.811,3.266-5.268
			c1.426-1.456,3.166-2.575,5.221-3.357s4.386-1.173,6.992-1.173c1.717,0,3.442,0.207,5.175,0.621
			c1.732,0.413,3.365,1.111,4.899,2.093c0.521,0.338,0.866,0.752,1.035,1.242c0.168,0.49,0.191,0.988,0.068,1.494
			c-0.122,0.507-0.353,0.943-0.689,1.312c-0.338,0.368-0.759,0.598-1.265,0.689c-0.507,0.093-1.066-0.029-1.68-0.367
			c-1.166-0.675-2.346-1.165-3.542-1.473c-1.195-0.306-2.53-0.46-4.002-0.46c-2.27,0-4.186,0.453-5.75,1.357
			c-1.563,0.904-2.737,2.216-3.519,3.933c-0.782,1.718-1.173,3.818-1.173,6.302c0,3.772,0.903,6.641,2.714,8.603
			c1.809,1.963,4.492,2.944,8.05,2.944c1.227,0,2.468-0.123,3.726-0.368s2.484-0.582,3.681-1.013l-1.15,2.622v-9.798h-5.06
			c-0.768,0-1.357-0.199-1.771-0.598s-0.621-0.936-0.621-1.61c0-0.705,0.207-1.242,0.621-1.609c0.414-0.368,1.004-0.553,1.771-0.553
			h7.59c0.766,0,1.356,0.207,1.771,0.621s0.621,1.005,0.621,1.771v11.178c0,0.675-0.131,1.242-0.391,1.702
			c-0.261,0.46-0.683,0.798-1.266,1.012c-1.35,0.491-2.897,0.897-4.646,1.219C1265,1166.164,1263.283,1166.325,1261.596,1166.325z"
			/>
		<path fill="#3C3C3B" d="M1282.986,1165.865c-1.012,0-1.787-0.269-2.323-0.805s-0.805-1.312-0.805-2.323v-26.174
			c0-1.013,0.269-1.786,0.805-2.323c0.536-0.536,1.312-0.805,2.323-0.805h16.422c0.767,0,1.357,0.199,1.771,0.598
			c0.414,0.399,0.621,0.966,0.621,1.702c0,0.767-0.207,1.356-0.621,1.771s-1.005,0.621-1.771,0.621h-13.892v8.924h12.88
			c0.797,0,1.395,0.2,1.794,0.599c0.398,0.398,0.598,0.981,0.598,1.748s-0.199,1.35-0.598,1.748
			c-0.399,0.398-0.997,0.598-1.794,0.598h-12.88v9.43h13.892c0.767,0,1.357,0.2,1.771,0.599s0.621,0.981,0.621,1.748
			s-0.207,1.35-0.621,1.748s-1.005,0.598-1.771,0.598H1282.986z"/>
	</g>
	<g>
		<g>
			
				<line fill="none" stroke="#3C3C3B" stroke-width="4" stroke-linecap="round" stroke-miterlimit="10" x1="849.962" y1="1104.865" x2="849.962" y2="1043.107"/>
			<g>
				<polygon fill="#3C3C3B" points="849.962,1014.865 866.224,1054.662 849.962,1045.219 833.705,1054.662 				"/>
			</g>
		</g>
	</g>
</g>
</svg>
